<svg width="300" height="300" viewBox="0 0 300 300" fill="none" xmlns="http://www.w3.org/2000/svg">
<g clipPath="url(#clip0_3379_6815)">
<path fill-rule="evenodd" clip-rule="evenodd" d="M150 300C67.1573 300 0 232.843 0 150C0 67.1573 67.1573 0 150 0C232.843 0 300 67.1573 300 150C300 232.843 232.843 300 150 300ZM225.926 133.336L140.741 133.338C136.651 133.338 133.335 136.653 133.334 140.743L133.325 159.261C133.324 163.352 136.64 166.669 140.731 166.67L192.593 166.668C196.684 166.668 200 169.984 200 174.075L200 175.927V177.779C200 190.052 190.051 200.001 177.778 200.001L107.403 200.001C103.312 200.001 99.9962 196.685 99.9961 192.594L99.9934 122.226C99.993 109.953 109.942 100.003 122.215 100.003L225.905 99.9991C229.994 99.9991 233.31 96.6855 233.313 92.5963L233.333 74.0786C233.336 69.9877 230.021 66.6692 225.931 66.6667C225.929 66.6667 225.927 66.6667 225.926 66.6667L122.223 66.6716C91.5406 66.6716 66.6677 91.5443 66.6676 122.227L66.6667 225.926C66.6666 230.017 69.983 233.333 74.074 233.333L183.335 233.333C210.948 233.333 233.333 210.948 233.333 183.335V140.743C233.333 136.652 230.017 133.336 225.926 133.336Z" fill="#C71D23"/>
</g>
<defs>
<clipPath id="clip0_3379_6815">
<rect width="300" height="300" fill="white"/>
</clipPath>
</defs>
</svg>
