<svg width="300" height="300" viewBox="0 0 300 300" fill="none" xmlns="http://www.w3.org/2000/svg">
<g clipPath="url(#clip0_3368_6812)">
<path d="M101.94 238.44C101.94 239.64 100.56 240.6 98.8199 240.6C96.8399 240.78 95.4599 239.82 95.4599 238.44C95.4599 237.24 96.8399 236.28 98.5799 236.28C100.38 236.1 101.94 237.06 101.94 238.44ZM83.2799 235.74C82.8599 236.94 84.0599 238.32 85.8599 238.68C87.4199 239.28 89.2199 238.68 89.5799 237.48C89.9399 236.28 88.7999 234.9 86.9999 234.36C85.4399 233.94 83.6999 234.54 83.2799 235.74ZM109.8 234.72C108.06 235.14 106.86 236.28 107.04 237.66C107.22 238.86 108.78 239.64 110.58 239.22C112.32 238.8 113.52 237.66 113.34 236.46C113.16 235.32 111.54 234.54 109.8 234.72ZM149.28 4.80005C66.0599 4.80005 2.3999 67.98 2.3999 151.2C2.3999 217.74 44.2799 274.68 104.1 294.72C111.78 296.1 114.48 291.36 114.48 287.46C114.48 283.74 114.3 263.22 114.3 250.62C114.3 250.62 72.2999 259.62 63.4799 232.74C63.4799 232.74 56.6399 215.28 46.7999 210.78C46.7999 210.78 33.0599 201.36 47.7599 201.54C47.7599 201.54 62.6999 202.74 70.9199 217.02C84.0599 240.18 106.08 233.52 114.66 229.56C116.04 219.96 119.94 213.3 124.26 209.34C90.7199 205.62 56.8799 200.76 56.8799 143.04C56.8799 126.54 61.4399 118.26 71.0399 107.7C69.4799 103.8 64.3799 87.72 72.5999 66.96C85.1399 63.06 114 83.16 114 83.16C126 79.8 138.9 78.06 151.68 78.06C164.46 78.06 177.36 79.8 189.36 83.16C189.36 83.16 218.22 63 230.76 66.96C238.98 87.78 233.88 103.8 232.32 107.7C241.92 118.32 247.8 126.6 247.8 143.04C247.8 200.94 212.46 205.56 178.92 209.34C184.44 214.08 189.12 223.08 189.12 237.18C189.12 257.4 188.94 282.42 188.94 287.34C188.94 291.24 191.7 295.98 199.32 294.6C259.32 274.68 300 217.74 300 151.2C300 67.98 232.5 4.80005 149.28 4.80005ZM60.7199 211.74C59.9399 212.34 60.1199 213.72 61.1399 214.86C62.0999 215.82 63.4799 216.24 64.2599 215.46C65.0399 214.86 64.8599 213.48 63.8399 212.34C62.8799 211.38 61.4999 210.96 60.7199 211.74ZM54.2399 206.88C53.8199 207.66 54.4199 208.62 55.6199 209.22C56.5799 209.82 57.7799 209.64 58.1999 208.8C58.6199 208.02 58.0199 207.06 56.8199 206.46C55.6199 206.1 54.6599 206.28 54.2399 206.88ZM73.6799 228.24C72.7199 229.02 73.0799 230.82 74.4599 231.96C75.8399 233.34 77.5799 233.52 78.3599 232.56C79.1399 231.78 78.7799 229.98 77.5799 228.84C76.2599 227.46 74.4599 227.28 73.6799 228.24ZM66.8399 219.42C65.8799 220.02 65.8799 221.58 66.8399 222.96C67.7999 224.34 69.4199 224.94 70.1999 224.34C71.1599 223.56 71.1599 222 70.1999 220.62C69.3599 219.24 67.7999 218.64 66.8399 219.42Z" fill="#3E75C3"/>
</g>
<defs>
<clipPath id="clip0_3368_6812">
<rect width="300" height="300" fill="white"/>
</clipPath>
</defs>
</svg>
