<svg width="300" height="300" viewBox="0 0 300 300" fill="none" xmlns="http://www.w3.org/2000/svg">
<g clipPath="url(#clip0_3368_6810)">
<path d="M296.802 153.376C296.802 143.501 295.927 134.126 294.427 125.001H153.176V181.376H234.052C230.427 199.877 219.802 215.502 204.051 226.127V263.627H252.302C280.552 237.502 296.802 199.002 296.802 153.376Z" fill="#4285F4"/>
<path d="M153.176 300.002C193.676 300.002 227.552 286.502 252.302 263.627L204.051 226.127C190.551 235.127 173.426 240.627 153.176 240.627C114.051 240.627 80.9255 214.251 69.0504 178.626H19.3V217.251C43.9252 266.252 94.5506 300.002 153.176 300.002Z" fill="#34A853"/>
<path d="M69.0505 178.626C65.9255 169.626 64.3005 160.001 64.3005 150.001C64.3005 140.001 66.0505 130.376 69.0505 121.376V82.7507H19.3002C9.05008 103.001 3.17505 125.751 3.17505 150.001C3.17505 174.251 9.05008 197.002 19.3002 217.252L69.0505 178.626Z" fill="#FBBC05"/>
<path d="M153.176 59.3754C175.301 59.3754 195.051 67.0005 210.676 81.8756L253.427 39.1253C227.552 14.8751 193.676 0 153.176 0C94.5506 0 43.9252 33.7503 19.3 82.7506L69.0504 121.376C80.9255 85.7507 114.051 59.3754 153.176 59.3754Z" fill="#EA4335"/>
</g>
<defs>
<clipPath id="clip0_3368_6810">
<rect width="300" height="300" fill="white"/>
</clipPath>
</defs>
</svg>
